<svg width="512" height="512" viewBox="0 0 512 512" xmlns="http://www.w3.org/2000/svg">
  <rect width="512" height="512" fill="#4F46E5" rx="64"/>
  <g transform="translate(102.4, 128)">
    <path d="M153.6 25.6C76.8 25.6 25.6 76.8 25.6 153.6V179.2H12.8C5.12 179.2 0 184.32 0 192V256C0 263.68 5.12 268.8 12.8 268.8H294.4C302.08 268.8 307.2 263.68 307.2 256V192C307.2 184.32 302.08 179.2 294.4 179.2H281.6V153.6C281.6 76.8 230.4 25.6 153.6 25.6ZM64 153.6C64 97.28 97.28 64 153.6 64C209.92 64 243.2 97.28 243.2 153.6V179.2H64V153.6Z" fill="white"/>
  </g>
</svg>
