<svg width="192" height="192" viewBox="0 0 192 192" xmlns="http://www.w3.org/2000/svg">
  <rect width="192" height="192" fill="#4F46E5" rx="24"/>
  <g transform="translate(38.4, 48)">
    <path d="M57.6 9.6C28.8 9.6 9.6 28.8 9.6 57.6V67.2H4.8C1.92 67.2 0 69.12 0 72V96C0 98.88 1.92 100.8 4.8 100.8H110.4C113.28 100.8 115.2 98.88 115.2 96V72C115.2 69.12 113.28 67.2 110.4 67.2H105.6V57.6C105.6 28.8 86.4 9.6 57.6 9.6ZM24 57.6C24 36.48 36.48 24 57.6 24C78.72 24 91.2 36.48 91.2 57.6V67.2H24V57.6Z" fill="white"/>
  </g>
</svg>
